<svg width="11" height="9" viewBox="0 0 11 9" fill="none" xmlns="http://www.w3.org/2000/svg">
<path fill-rule="evenodd" clip-rule="evenodd" d="M3.26317 4.92017C3.66298 5.40043 4.40042 5.40043 4.80023 4.92017L8.64023 0.3076C8.98167 -0.102533 9.61144 -0.102533 9.95288 0.3076V0.3076C10.2164 0.624187 10.2164 1.0838 9.95288 1.40038L5.12076 7.20468C5.12072 7.20472 5.12066 7.20472 5.12062 7.20468V7.20468C5.12058 7.20463 5.12051 7.20463 5.12048 7.20468L4.58075 7.85299C4.30026 8.18991 3.78291 8.18991 3.50242 7.85299L0.195886 3.88121C-0.0652957 3.56748 -0.0652954 3.11202 0.195887 2.79829V2.79829C0.534244 2.39186 1.15833 2.39186 1.49668 2.79829L3.26317 4.92017Z" fill="#AAAAAA"/>
</svg>
